<?xml version="1.0" standalone="no"?><!DOCTYPE svg PUBLIC "-//W3C//DTD SVG 1.1//EN" "http://www.w3.org/Graphics/SVG/1.1/DTD/svg11.dtd"><svg t="1750445317176" class="icon" viewBox="0 0 1024 1024" version="1.1" xmlns="http://www.w3.org/2000/svg" p-id="14799" xmlns:xlink="http://www.w3.org/1999/xlink" width="200" height="200"><path d="M5.12 512c0 280.064 226.816 506.88 506.88 506.88s506.88-226.816 506.88-506.88-226.816-506.88-506.88-506.88S5.12 231.936 5.12 512z" fill="#515151" p-id="14800" data-spm-anchor-id="a313x.search_index.0.i45.4b363a81OcD1OZ" class="selected"></path><path d="M801.28 720.384h-209.408v-28.16c17.92 0 31.232-2.048 39.936-5.632 8.192-3.584 13.824-8.704 16.384-15.872 2.56-6.656 4.096-16.384 4.096-28.16v-261.12l-157.696 338.944H476.16L316.416 381.44V629.76c0 13.312 0.512 23.04 1.536 30.208 1.024 7.168 3.072 12.8 7.168 17.92 3.584 5.12 9.728 8.704 17.92 10.752 8.192 2.56 19.456 3.584 34.304 3.584v28.16H222.72v-28.16c14.848 0 26.112-1.024 34.304-3.584 8.192-2.56 13.824-6.144 17.92-11.264 3.584-5.12 6.144-10.752 6.656-17.92 1.024-6.656 1.024-16.896 1.024-30.208v-235.52c0-17.408-1.024-30.208-2.56-38.4-2.048-7.68-7.168-13.824-15.36-17.92-8.192-4.096-22.528-6.144-41.984-6.144v-28.16h152.576l138.24 294.4 138.752-294.4h148.992v28.16c-25.6 0-41.984 3.584-49.664 11.264-7.68 7.68-11.264 19.968-11.264 37.888v262.144c0 11.264 1.024 20.48 3.584 27.136 2.56 7.168 8.192 12.288 16.896 16.384 8.704 3.584 22.528 5.632 39.936 5.632v28.672z" fill="#ffffff" p-id="14801" data-spm-anchor-id="a313x.search_index.0.i44.4b363a81OcD1OZ" class=""></path></svg>