<?xml version="1.0" standalone="no"?><!DOCTYPE svg PUBLIC "-//W3C//DTD SVG 1.1//EN" "http://www.w3.org/Graphics/SVG/1.1/DTD/svg11.dtd"><svg t="1750448723364" class="icon" viewBox="0 0 1080 1024" version="1.1" xmlns="http://www.w3.org/2000/svg" p-id="12459" xmlns:xlink="http://www.w3.org/1999/xlink" width="210.9375" height="200"><path d="M487.747368 48.505263c-241.100261 0-436.547368 195.447107-436.547368 436.547369s195.447107 436.547368 436.547368 436.547368c3.637895 0 7.178779-0.407444 10.763318-0.606316 1.261137-0.067907 2.522274-0.087309 3.788261-0.150366a936.927663 936.927663 0 0 0 13.644531-0.756682c31.853406-2.046922 62.717305-7.804497 92.305516-16.370527 27.521886-7.974265 53.937853-18.344691 78.976269-31.227688 87.746021-45.129297 157.360775-119.371453 197.809314-209.634897 0.305583-0.679074 0.761533-1.285389 1.062265-1.969313 8.250745-18.674526 15.608994-37.809853 21.221053-57.750367 4.365474-15.516834 8.114931-31.276194 10.763318-47.442998 2.905465-17.752926 4.637103-35.884194 5.456842-54.267688 0.242526-5.456842 0.756682-10.855478 0.756682-16.370526 0-17.704421-1.435756-34.991697-3.487529-52.143158-0.412295-3.482678-1.168977-6.853794-1.668581-10.307369C888.740379 211.216168 707.548968 48.505263 487.747368 48.505263z" fill="#515151" p-id="12460" data-spm-anchor-id="a313x.search_index.0.i14.51393a816NYZIg" class="selected"></path><path d="M331.206333 727.210307c-38.949726-2.842408-67.204042-38.779958-60.660682-77.152471 4.360623-25.562274 23.418341-46.468042 48.325793-53.016253 6.926552-1.818947 10.879731-2.255495 18.698779-2.066324 7.950013 0.194021 12.082661 0.873095 18.8928 3.114038 9.851419 3.235301 17.811133 8.056724 25.43131 15.419823 10.511091 10.147301 16.991394 22.506442 19.620379 37.436362 0.630568 3.560286 0.630568 16.671259 0 20.221844-2.100278 11.869238-6.805288 22.511293-13.794897 31.222838-2.493171 3.104337-7.8336 8.391411-10.937937 10.826375-12.853895 10.098796-29.379638 15.172446-45.575545 13.993768z m165.548463-5.752724c-1.377549-35.602863-8.866762-65.520909-23.9616-95.700884-27.090189-54.165827-75.367478-95.817297-132.540632-114.346307-21.157996-6.858644-41.093659-10.341322-63.68256-11.117407l-7.09632-0.242526V406.081213l6.829541 0.223124c12.931503 0.417145 21.890425 1.091368 33.439529 2.522274 60.466661 7.484362 118.352842 32.7168 165.504808 72.137027 17.287276 14.454568 33.808168 31.528421 47.583663 49.174636 42.932008 55.014669 66.568623 121.990737 67.820059 192.206955l0.09216 5.233718H496.997322l-0.242526-6.121364z m160.848303 1.949912c0-5.733322-0.606316-18.771537-1.246585-26.871916-6.111663-77.564766-35.156615-150.730105-84.079023-211.807933-58.157811-72.602678-140.873836-122.145954-231.845457-138.860867-21.342316-3.919225-46.928842-6.422097-65.724632-6.422097H269.473684V242.526316l8.071276 0.223124c21.419924 0.591764 37.858358 1.818947 55.436665 4.122947 82.0224 10.78272 159.698728 42.3936 226.194594 92.048438 53.937853 40.278771 98.645154 90.937667 132.167141 149.784253 39.168 68.741659 61.213642 148.586173 62.654248 226.89792l0.218274 11.975949h-96.612783v-4.171452z" fill="#ffffff" p-id="12461" data-spm-anchor-id="a313x.search_index.0.i13.51393a816NYZIg" class=""></path><path d="M482.896842 48.505263C241.796581 48.505263 46.349474 243.952371 46.349474 485.052632s195.447107 436.547368 436.547368 436.547368V48.505263z" fill="#515151" opacity=".15" p-id="12462" data-spm-anchor-id="a313x.search_index.0.i15.51393a816NYZIg" class="selected"></path></svg>